<svg viewBox="0 0 148 165" fill="none" xmlns="http://www.w3.org/2000/svg">
<path d="M117.613 139.554C106.033 145.377 93.0387 147.794 80.1396 146.525C67.2405 145.257 54.966 140.355 44.7418 132.388C34.5176 124.422 26.7634 113.719 22.3799 101.521C17.9963 89.3235 17.1633 76.1326 19.9776 63.4805C22.792 50.8284 29.1381 39.2344 38.2789 30.0453C47.4197 20.8561 58.9801 14.4488 71.6171 11.5678C84.2542 8.68674 97.4493 9.45011 109.67 13.7692" stroke="black" stroke-width="6"/>
<path d="M81.5 78C81.5 78 105.13 95 112.08 100C105.283 109.683 94.1196 116 81.5 116C60.7893 116 44 98.9868 44 78C44 57.0132 60.7893 40 81.5 40C94.1196 40 105.283 46.3166 112.08 56C116.5 53 81.5 78 81.5 78Z" fill="black"/>
</svg>
